<?xml version="1.0" standalone="no"?>
<!DOCTYPE svg PUBLIC "-//W3C//DTD SVG 20010904//EN"
 "http://www.w3.org/TR/2001/REC-SVG-20010904/DTD/svg10.dtd">
<svg version="1.0" xmlns="http://www.w3.org/2000/svg"
 width="1254.000000pt" height="1254.000000pt" viewBox="0 0 1254.000000 1254.000000"
 preserveAspectRatio="xMidYMid meet">

<g transform="translate(0.000000,1254.000000) scale(0.100000,-0.100000)"
fill="#000000" stroke="none">
<path d="M5790 9654 c-19 -2 -78 -9 -130 -14 -392 -43 -781 -196 -1092 -431
-107 -80 -291 -260 -378 -369 -243 -305 -433 -717 -512 -1111 -32 -162 -32
-437 0 -552 51 -185 150 -344 306 -495 88 -84 241 -199 291 -218 8 -4 15 -10
15 -14 0 -4 -36 -67 -80 -139 -226 -371 -388 -751 -475 -1116 -114 -478 -104
-879 32 -1245 173 -464 507 -784 1011 -969 134 -49 292 -91 345 -91 55 0 97
43 97 100 0 41 -23 100 -39 100 -19 0 -104 128 -151 225 -56 114 -91 230 -116
376 -25 150 -16 411 20 577 76 349 241 649 488 888 117 114 186 162 357 251
53 28 56 31 120 158 37 72 79 150 95 175 48 76 139 200 146 200 9 0 64 -207
85 -320 27 -149 33 -155 183 -194 178 -45 322 -125 423 -232 55 -60 122 -170
147 -244 44 -128 97 -195 242 -310 30 -24 61 -50 68 -59 47 -57 -40 -273 -158
-392 -81 -82 -154 -118 -328 -163 -70 -18 -149 -43 -176 -54 -140 -62 -216
-190 -216 -363 0 -251 144 -481 370 -592 134 -66 199 -81 350 -80 135 0 201
10 325 50 409 131 708 476 805 928 33 155 38 387 12 540 -37 216 -120 422
-245 614 -151 229 -320 398 -742 737 -298 240 -377 333 -410 479 -39 169 32
292 202 348 43 14 114 30 158 37 443 64 661 150 883 349 262 234 456 654 457
986 0 103 -3 127 -22 168 -48 103 -121 166 -241 206 -33 11 -146 36 -253 56
-471 87 -574 137 -635 305 -115 321 -298 538 -589 702 -246 138 -516 207 -840
213 -93 2 -186 1 -205 -1z m440 -259 c492 -75 843 -344 981 -752 47 -140 117
-219 257 -291 126 -65 256 -101 546 -153 221 -38 265 -51 300 -88 38 -39 44
-108 22 -219 -66 -323 -258 -639 -481 -789 -166 -112 -322 -163 -640 -212
-331 -51 -493 -157 -566 -371 -43 -128 -22 -311 52 -451 17 -31 60 -94 97
-139 64 -81 122 -132 452 -400 439 -356 636 -609 748 -961 42 -132 56 -251 49
-421 -11 -289 -105 -515 -292 -703 -102 -104 -173 -153 -289 -203 -331 -140
-652 -67 -776 178 -72 144 -60 309 28 354 15 8 82 27 148 41 258 58 413 159
538 352 83 129 126 255 126 374 0 101 -29 159 -118 237 -173 151 -174 152
-231 284 -51 121 -120 235 -139 231 -5 -1 -18 8 -28 20 l-19 22 23 -19 c12
-11 22 -15 22 -9 0 17 -143 149 -204 188 -84 54 -229 119 -309 141 -38 9 -70
22 -72 28 -1 6 -12 58 -25 116 -42 200 -109 367 -170 425 -36 35 -111 45 -156
22 -99 -51 -272 -283 -400 -538 -31 -62 -52 -93 -69 -99 -95 -36 -318 -203
-433 -324 -495 -521 -672 -1319 -432 -1943 17 -43 30 -79 30 -80 0 -12 -45 6
-156 62 -439 219 -699 622 -744 1152 -24 277 37 660 155 987 98 271 241 567
379 784 68 107 81 123 100 118 11 -3 64 -13 116 -22 337 -57 608 85 767 400
52 102 109 283 139 441 24 127 27 163 28 380 1 249 -8 337 -55 565 -34 165
-46 198 -82 221 -47 30 -112 21 -149 -20 -34 -38 -35 -68 -9 -183 91 -397 89
-820 -6 -1123 -100 -319 -282 -472 -536 -451 -328 27 -718 323 -823 624 -65
187 -48 428 51 747 108 345 291 662 518 894 217 222 452 374 734 475 317 114
683 151 1003 101z"/>
<path d="M6433 8385 c-30 -15 -61 -41 -76 -63 -102 -148 -4 -341 173 -341 169
-1 269 165 191 317 -54 105 -177 142 -288 87z"/>
<path d="M8739 6841 c-61 -12 -147 -60 -179 -99 -114 -138 -109 -319 14 -505
83 -126 299 -325 451 -416 l57 -35 33 18 c78 42 247 181 345 283 160 167 222
286 221 424 -2 144 -59 242 -177 300 -122 60 -266 36 -369 -62 l-51 -48 -53
49 c-77 72 -198 110 -292 91z"/>
<path d="M6521 4882 c-50 -25 -74 -63 -78 -124 -3 -41 1 -60 16 -86 29 -45 77
-72 131 -72 62 0 110 28 138 81 70 131 -73 270 -207 201z"/>
</g>
</svg>
